<?xml version="1.0" encoding="UTF-8" standalone="no"?>
<!DOCTYPE svg PUBLIC "-//W3C//DTD SVG 1.1//EN" "http://www.w3.org/Graphics/SVG/1.1/DTD/svg11.dtd">
<svg width="100%" height="100%" viewBox="0 0 91 110" version="1.1" xmlns="http://www.w3.org/2000/svg" xmlns:xlink="http://www.w3.org/1999/xlink" xml:space="preserve" xmlns:serif="http://www.serif.com/" style="fill-rule:evenodd;clip-rule:evenodd;stroke-linejoin:round;stroke-miterlimit:2;">
    <g transform="matrix(1,0,0,1,-140,-394)">
        <g transform="matrix(34.2453,0,0,18.0824,31351.5,-9912.83)">
            <g id="icon-contour">
                <g id="path-3" transform="matrix(0.0124177,0,0,0.0235171,-913.348,568.533)">
                    <path d="M331,285C289.667,315 250.167,325.167 212.5,315.5C174.833,305.833 156.333,281 157,241C157.667,201 183.833,153.5 235.5,98.5C287.167,43.5 326.333,53.333 353,128C379.667,202.667 372.333,255 331,285Z" style="fill-rule:nonzero;"/>
                </g>
                <g id="path-2" transform="matrix(0.00841095,0,0,0.0159291,-912.324,570.293)">
                    <path d="M331,285C289.667,315 250.167,325.167 212.5,315.5C174.833,305.833 156.333,281 157,241C157.667,201 183.833,153.5 235.5,98.5C287.167,43.5 326.333,53.333 353,128C379.667,202.667 372.333,255 331,285Z" style="fill-rule:nonzero;"/>
                </g>
                <g id="path-1" transform="matrix(0.00346681,0,0,0.0065656,-911.116,572.526)">
                    <path d="M331,285C289.667,315 250.167,325.167 212.5,315.5C174.833,305.833 156.333,281 157,241C157.667,201 183.833,153.5 235.5,98.5C287.167,43.5 326.333,53.333 353,128C379.667,202.667 372.333,255 331,285Z" style="fill-rule:nonzero;"/>
                </g>
            </g>
        </g>
    </g>
</svg>
