<?xml version="1.0" encoding="UTF-8" standalone="no"?>
<!DOCTYPE svg PUBLIC "-//W3C//DTD SVG 1.1//EN" "http://www.w3.org/Graphics/SVG/1.1/DTD/svg11.dtd">
<svg width="100%" height="100%" viewBox="0 0 79 58" version="1.1" xmlns="http://www.w3.org/2000/svg" xmlns:xlink="http://www.w3.org/1999/xlink" xml:space="preserve" xmlns:serif="http://www.serif.com/" style="fill-rule:evenodd;clip-rule:evenodd;stroke-linejoin:round;stroke-miterlimit:2;">
    <g transform="matrix(1,0,0,1,-586,-134)">
        <g transform="matrix(34.2453,0,0,18.0824,31351.5,-9912.83)">
            <g id="icon-list" transform="matrix(0.0292011,0,0,0.0553024,-898.653,559.178)">
                <path d="M32.031,-31.69L84.131,-31.69C86.084,-31.69 87.647,-33.252 87.647,-35.205C87.647,-37.158 86.084,-38.721 84.131,-38.721L32.031,-38.721C30.078,-38.721 28.516,-37.158 28.516,-35.205C28.516,-33.252 30.078,-31.69 32.031,-31.69ZM32.031,-8.398L84.131,-8.398C86.084,-8.398 87.647,-9.961 87.647,-11.914C87.647,-13.867 86.084,-15.43 84.131,-15.43L32.031,-15.43C30.078,-15.43 28.516,-13.867 28.516,-11.914C28.516,-9.961 30.078,-8.398 32.031,-8.398ZM32.031,-54.981L84.131,-54.981C86.084,-54.981 87.647,-56.543 87.647,-58.496C87.647,-60.449 86.084,-62.012 84.131,-62.012L32.031,-62.012C30.078,-62.012 28.516,-60.449 28.516,-58.496C28.516,-56.543 30.078,-54.981 32.031,-54.981Z" style="fill-rule:nonzero;"/>
                <path d="M14.746,-30.225C17.481,-30.225 19.727,-32.471 19.727,-35.205C19.727,-37.94 17.481,-40.186 14.746,-40.186C12.012,-40.186 9.766,-37.94 9.766,-35.205C9.766,-32.471 12.012,-30.225 14.746,-30.225ZM14.746,-53.516C17.481,-53.516 19.727,-55.762 19.727,-58.496C19.727,-61.231 17.481,-63.477 14.746,-63.477C12.012,-63.477 9.766,-61.231 9.766,-58.496C9.766,-55.762 12.012,-53.516 14.746,-53.516ZM14.746,-6.934C17.481,-6.934 19.727,-9.18 19.727,-11.914C19.727,-14.648 17.481,-16.895 14.746,-16.895C12.012,-16.895 9.766,-14.648 9.766,-11.914C9.766,-9.18 12.012,-6.934 14.746,-6.934Z" style="fill-rule:nonzero;"/>
            </g>
        </g>
    </g>
</svg>
