<?xml version="1.0" encoding="UTF-8" standalone="no"?>
<!DOCTYPE svg PUBLIC "-//W3C//DTD SVG 1.1//EN" "http://www.w3.org/Graphics/SVG/1.1/DTD/svg11.dtd">
<svg width="100%" height="100%" viewBox="0 0 87 79" version="1.1" xmlns="http://www.w3.org/2000/svg" xmlns:xlink="http://www.w3.org/1999/xlink" xml:space="preserve" xmlns:serif="http://www.serif.com/" style="fill-rule:evenodd;clip-rule:evenodd;stroke-linejoin:round;stroke-miterlimit:2;">
    <g transform="matrix(1,0,0,1,-713,-118)">
        <g transform="matrix(34.2453,0,0,18.0824,31351.5,-9912.83)">
            <g id="icon-checklist" transform="matrix(0.0292011,0,0,0.0553024,-894.956,558.862)">
                <path d="M54.883,-53.857L92.969,-53.857C94.775,-53.857 96.289,-55.273 96.289,-57.129C96.289,-58.984 94.775,-60.4 92.969,-60.4L54.883,-60.4C53.027,-60.4 51.563,-58.984 51.563,-57.129C51.563,-55.273 53.027,-53.857 54.883,-53.857ZM54.883,-9.912L92.969,-9.912C94.775,-9.912 96.289,-11.328 96.289,-13.184C96.289,-15.039 94.775,-16.455 92.969,-16.455L54.883,-16.455C53.027,-16.455 51.563,-15.039 51.563,-13.184C51.563,-11.328 53.027,-9.912 54.883,-9.912Z" style="fill-rule:nonzero;"/>
                <path d="M26.514,3.564C35.596,3.564 43.164,-4.102 43.164,-13.184C43.164,-22.315 35.596,-29.932 26.514,-29.932C17.334,-29.932 9.766,-22.315 9.766,-13.184C9.766,-4.102 17.383,3.564 26.514,3.564ZM26.514,-40.43C35.596,-40.43 43.164,-48.047 43.164,-57.129C43.164,-66.26 35.596,-73.877 26.514,-73.877C17.334,-73.877 9.766,-66.26 9.766,-57.129C9.766,-48.047 17.383,-40.43 26.514,-40.43ZM26.514,-2.783C20.85,-2.783 16.113,-7.568 16.113,-13.184C16.113,-18.799 20.898,-23.584 26.514,-23.584C32.08,-23.584 36.816,-18.799 36.816,-13.184C36.816,-7.568 32.08,-2.783 26.514,-2.783ZM24.512,-48.291C23.633,-48.291 23.047,-48.779 22.412,-49.463L18.311,-54.443C17.969,-54.932 17.822,-55.42 17.822,-56.103C17.822,-57.275 18.701,-58.203 19.824,-58.203C20.606,-58.203 21.143,-57.91 21.729,-57.129L24.414,-53.613L30.957,-64.16C31.397,-64.941 32.031,-65.332 32.813,-65.332C33.936,-65.332 34.912,-64.453 34.912,-63.379C34.912,-62.842 34.766,-62.353 34.375,-61.719L26.66,-49.463C26.172,-48.731 25.391,-48.291 24.512,-48.291Z" style="fill-rule:nonzero;"/>
            </g>
        </g>
    </g>
</svg>
