<?xml version="1.0" encoding="UTF-8" standalone="no"?>
<!DOCTYPE svg PUBLIC "-//W3C//DTD SVG 1.1//EN" "http://www.w3.org/Graphics/SVG/1.1/DTD/svg11.dtd">
<svg width="100%" height="100%" viewBox="0 0 62 62" version="1.1" xmlns="http://www.w3.org/2000/svg" xmlns:xlink="http://www.w3.org/1999/xlink" xml:space="preserve" xmlns:serif="http://www.serif.com/" style="fill-rule:evenodd;clip-rule:evenodd;stroke-linejoin:round;stroke-miterlimit:2;">
    <g transform="matrix(1,0,0,1,-318,-282)">
        <g transform="matrix(34.2453,0,0,18.0824,31351.5,-9912.83)">
            <g id="icon-edit" transform="matrix(0.0292011,0,0,0.0553024,-906.466,567.442)">
                <path d="M19.775,-7.861L60.547,-48.584L53.223,-55.908L12.451,-15.185L8.887,-6.348C8.496,-5.371 9.521,-4.199 10.596,-4.541L19.775,-7.861ZM64.111,-52.051L68.213,-56.152C70.313,-58.203 70.41,-60.449 68.555,-62.305L67.041,-63.867C65.186,-65.723 62.94,-65.527 60.84,-63.525L56.69,-59.424L64.111,-52.051Z" style="fill-rule:nonzero;"/>
            </g>
        </g>
    </g>
</svg>
