<?xml version="1.0" encoding="UTF-8" standalone="no"?>
<!DOCTYPE svg PUBLIC "-//W3C//DTD SVG 1.1//EN" "http://www.w3.org/Graphics/SVG/1.1/DTD/svg11.dtd">
<svg width="100%" height="100%" viewBox="0 0 76 85" version="1.1" xmlns="http://www.w3.org/2000/svg" xmlns:xlink="http://www.w3.org/1999/xlink" xml:space="preserve" xmlns:serif="http://www.serif.com/" style="fill-rule:evenodd;clip-rule:evenodd;stroke-linejoin:round;stroke-miterlimit:2;">
    <g transform="matrix(1,0,0,1,-469,-404)">
        <g transform="matrix(34.2453,0,0,18.0824,31351.5,-9912.83)">
            <g id="icon-delete" transform="matrix(0.0292011,0,0,0.0553024,-901.949,575.088)">
                <path d="M24.756,2.393L61.67,2.393C66.553,2.393 69.336,-0.098 69.531,-5.078L71.826,-60.156L77.246,-60.156C79.053,-60.156 80.469,-61.621 80.469,-63.428C80.469,-65.234 79.053,-66.699 77.246,-66.699L9.082,-66.699C7.373,-66.699 5.859,-65.234 5.859,-63.428C5.859,-61.621 7.373,-60.156 9.082,-60.156L14.6,-60.156L16.895,-5.078C17.09,-0.098 19.824,2.393 24.756,2.393ZM25.635,-65.478L33.594,-65.478L33.594,-71.826C33.594,-73.535 34.766,-74.707 36.572,-74.707L49.756,-74.707C51.563,-74.707 52.734,-73.535 52.734,-71.826L52.734,-65.478L60.596,-65.478L60.596,-72.315C60.596,-78.369 56.592,-82.129 50.244,-82.129L35.986,-82.129C29.639,-82.129 25.635,-78.369 25.635,-72.315L25.635,-65.478ZM43.164,-8.545C41.553,-8.545 40.381,-9.57 40.381,-11.084L40.381,-52.051C40.381,-53.516 41.553,-54.59 43.164,-54.59C44.824,-54.59 45.947,-53.516 45.947,-52.051L45.947,-11.084C45.947,-9.57 44.824,-8.545 43.164,-8.545ZM30.957,-8.545C29.395,-8.545 28.32,-9.521 28.272,-11.084L27.197,-52.051C27.148,-53.565 28.223,-54.59 29.883,-54.59C31.397,-54.59 32.52,-53.565 32.568,-52.051L33.643,-11.084C33.691,-9.57 32.617,-8.545 30.957,-8.545ZM55.42,-8.545C53.76,-8.545 52.686,-9.57 52.734,-11.084L53.809,-52.051C53.857,-53.565 54.932,-54.59 56.494,-54.59C58.154,-54.59 59.228,-53.516 59.18,-52.051L58.106,-11.084C58.057,-9.521 56.934,-8.545 55.42,-8.545Z" style="fill-rule:nonzero;"/>
            </g>
        </g>
    </g>
</svg>
