<?xml version="1.0" encoding="UTF-8" standalone="no"?>
<!DOCTYPE svg PUBLIC "-//W3C//DTD SVG 1.1//EN" "http://www.w3.org/Graphics/SVG/1.1/DTD/svg11.dtd">
<svg width="100%" height="100%" viewBox="0 0 69 84" version="1.1" xmlns="http://www.w3.org/2000/svg" xmlns:xlink="http://www.w3.org/1999/xlink" xml:space="preserve" xmlns:serif="http://www.serif.com/" style="fill-rule:evenodd;clip-rule:evenodd;stroke-linejoin:round;stroke-miterlimit:2;">
    <g transform="matrix(1,0,0,1,-471,-118)">
        <g transform="matrix(34.2453,0,0,18.0824,31351.5,-9912.83)">
            <g id="icon-download" transform="matrix(0.0292011,0,0,0.0553024,-902.027,559.05)">
                <path d="M22.217,5.469L66.016,5.469C74.365,5.469 78.467,1.367 78.467,-6.836L78.467,-44.385C78.467,-52.588 74.365,-56.69 66.016,-56.69L55.518,-56.69L55.518,-49.609L65.918,-49.609C69.385,-49.609 71.436,-47.705 71.436,-44.043L71.436,-7.178C71.436,-3.467 69.385,-1.611 65.918,-1.611L22.315,-1.611C18.799,-1.611 16.797,-3.467 16.797,-7.178L16.797,-44.043C16.797,-47.705 18.799,-49.609 22.315,-49.609L32.715,-49.609L32.715,-56.69L22.217,-56.69C13.916,-56.69 9.766,-52.588 9.766,-44.385L9.766,-6.836C9.766,1.367 13.916,5.469 22.217,5.469Z" style="fill-rule:nonzero;"/>
                <path d="M44.092,-20.02C45.02,-20.02 45.752,-20.313 46.631,-21.191L59.228,-33.252C59.912,-33.887 60.303,-34.619 60.303,-35.547C60.303,-37.353 58.935,-38.623 57.08,-38.623C56.25,-38.623 55.371,-38.281 54.736,-37.549L49.365,-31.738L47.315,-29.541L47.607,-35.352L47.607,-74.414C47.607,-76.269 45.996,-77.832 44.092,-77.832C42.236,-77.832 40.625,-76.269 40.625,-74.414L40.625,-35.352L40.918,-29.541L38.867,-31.738L33.496,-37.549C32.861,-38.281 31.934,-38.623 31.104,-38.623C29.248,-38.623 27.93,-37.353 27.93,-35.547C27.93,-34.619 28.32,-33.887 28.955,-33.252L41.553,-21.191C42.481,-20.313 43.213,-20.02 44.092,-20.02Z" style="fill-rule:nonzero;"/>
            </g>
        </g>
    </g>
</svg>
