<?xml version="1.0" encoding="UTF-8" standalone="no"?>
<!DOCTYPE svg PUBLIC "-//W3C//DTD SVG 1.1//EN" "http://www.w3.org/Graphics/SVG/1.1/DTD/svg11.dtd">
<svg width="100%" height="100%" viewBox="0 0 79 80" version="1.1" xmlns="http://www.w3.org/2000/svg" xmlns:xlink="http://www.w3.org/1999/xlink" xml:space="preserve" xmlns:serif="http://www.serif.com/" style="fill-rule:evenodd;clip-rule:evenodd;stroke-linejoin:round;stroke-miterlimit:2;">
    <g transform="matrix(1,0,0,1,-312,-408)">
        <g transform="matrix(34.2453,0,0,18.0824,31351.5,-9912.83)">
            <g id="icon-info" transform="matrix(0.0292011,0,0,0.0553024,-906.585,574.91)">
                <path d="M46.24,4.15C67.773,4.15 85.693,-13.721 85.693,-35.254C85.693,-56.787 67.725,-74.658 46.191,-74.658C24.707,-74.658 6.836,-56.787 6.836,-35.254C6.836,-13.721 24.756,4.15 46.24,4.15ZM46.24,-3.271C28.516,-3.271 14.355,-17.481 14.355,-35.254C14.355,-53.027 28.467,-67.236 46.191,-67.236C63.965,-67.236 78.223,-53.027 78.223,-35.254C78.223,-17.481 64.014,-3.271 46.24,-3.271Z" style="fill-rule:nonzero;"/>
                <path d="M39.648,-13.623L55.176,-13.623C56.934,-13.623 58.35,-14.893 58.35,-16.699C58.35,-18.408 56.934,-19.727 55.176,-19.727L50.879,-19.727L50.879,-37.988C50.879,-40.381 49.707,-41.895 47.51,-41.895L40.381,-41.895C38.623,-41.895 37.256,-40.576 37.256,-38.916C37.256,-37.109 38.623,-35.84 40.381,-35.84L43.945,-35.84L43.945,-19.727L39.648,-19.727C37.891,-19.727 36.475,-18.408 36.475,-16.699C36.475,-14.893 37.891,-13.623 39.648,-13.623ZM45.85,-47.9C48.926,-47.9 51.318,-50.342 51.318,-53.418C51.318,-56.494 48.926,-58.887 45.85,-58.887C42.822,-58.887 40.381,-56.494 40.381,-53.418C40.381,-50.342 42.822,-47.9 45.85,-47.9Z" style="fill-rule:nonzero;"/>
            </g>
        </g>
    </g>
</svg>
